<svg width="144" height="144" viewBox="0 0 144 144" fill="none" xmlns="http://www.w3.org/2000/svg">
<circle cx="72" cy="72" r="72" fill="black"/>
<path d="M48.9341 31C47.8144 31 47 31.8144 47 32.9341V110.605C47 111.725 47.8144 112.539 48.9341 112.539H96.0659C97.1856 112.539 98 111.725 98 110.605V32.9341C98 31.8144 97.1856 31 96.0659 31L48.9341 31ZM57.1796 41.1796H87.7186V92.0778H57.1796V41.1796ZM72.4491 97.1677C75.2994 97.1677 77.5389 99.4072 77.5389 102.257C77.5389 105.108 75.2994 107.347 72.4491 107.347C69.5988 107.347 67.3593 105.108 67.3593 102.257C67.3593 99.4072 69.5988 97.1677 72.4491 97.1677Z" fill="white"/>
</svg>
