<svg width="144" height="144" viewBox="0 0 144 144" fill="none" xmlns="http://www.w3.org/2000/svg">
<circle cx="72" cy="72" r="72" fill="black"/>
<path fill-rule="evenodd" clip-rule="evenodd" d="M104.596 36.3689C100.343 32.1141 95.291 28.7424 89.7299 26.4481C84.1688 24.1537 78.2088 22.9819 72.193 23.0002C46.9464 23.0002 26.3943 43.4496 26.384 68.5894C26.3728 76.5944 28.483 84.4595 32.4995 91.384L26 115L50.2834 108.661C57.0052 112.302 64.5297 114.208 72.1745 114.205H72.193C97.4375 114.205 117.988 93.7538 118 68.6161C118.015 62.6208 116.838 56.6824 114.537 51.1463C112.236 45.6102 108.857 40.587 104.596 36.3689ZM72.193 106.511H72.1765C65.3615 106.513 58.6704 104.689 52.7991 101.229L51.4088 100.407L36.9989 104.169L40.8452 90.1868L39.9396 88.7493C36.129 82.7162 34.11 75.7251 34.1178 68.5894C34.1178 47.6985 51.2055 30.7011 72.2073 30.7011C82.2821 30.6831 91.9515 34.6676 99.0887 41.7783C106.226 48.8889 110.247 58.5434 110.266 68.6181C110.258 89.5111 93.1784 106.511 72.193 106.511ZM93.0757 78.1323C91.9319 77.5614 86.2989 74.8055 85.2557 74.4256C84.2125 74.0457 83.4424 73.8547 82.6805 74.9965C81.9187 76.1383 79.7234 78.6929 79.056 79.463C78.3886 80.2331 77.7212 80.3173 76.5773 79.7464C75.4335 79.1755 71.7432 77.9742 67.3712 74.0929C63.9684 71.0722 61.6725 67.3429 61.0051 66.2031C60.3377 65.0634 60.9332 64.4453 61.5062 63.8785C62.0216 63.3672 62.65 62.5478 63.223 61.8824C63.7959 61.2171 63.9869 60.7407 64.3668 59.9808C64.7467 59.221 64.5578 58.5557 64.2723 57.9868C63.9869 57.418 61.6972 51.8097 60.7443 49.5282C59.8141 47.3062 58.8715 47.6081 58.1691 47.5732C57.5017 47.5403 56.7316 47.5321 55.9739 47.5321C55.3946 47.5472 54.8246 47.6815 54.2996 47.9267C53.7745 48.172 53.3057 48.5228 52.9223 48.9573C51.8729 50.0991 48.9158 52.8591 48.9158 58.4612C48.9158 64.0633 53.0229 69.4847 53.5897 70.2446C54.1565 71.0044 61.6602 82.5105 73.1417 87.4452C75.2737 88.3583 77.4521 89.1589 79.668 89.8438C82.4095 90.7104 84.9046 90.5893 86.876 90.2956C89.0753 89.9691 93.6528 87.5397 94.6036 84.8783C95.5544 82.2169 95.5564 79.9374 95.271 79.463C94.9855 78.9887 94.2216 78.7012 93.0757 78.1323Z" fill="white"/>
</svg>
